<svg xmlns="http://www.w3.org/2000/svg" viewBox="0 0 24 24" fill="none"><path d="M15.137 3.245A9.3 9.3 0 0 1 21.151 13.66" fill="none" stroke="#6bb4bd" stroke-width="1.4" stroke-linecap="butt"/><path d="M18.013 19.094A9.3 9.3 0 1 1 8.863 3.245" fill="none" stroke="#6bb4bd" stroke-width="1.4" stroke-linecap="butt"/><path d="M15.33 17.466A6.4 6.4 0 0 1 8.67 17.466" fill="none" stroke="#6bb4bd" stroke-width="1.4" stroke-linecap="butt"/><path d="M5.602 12.151A6.4 6.4 0 1 1 18.398 12.151" fill="none" stroke="#6bb4bd" stroke-width="1.4" stroke-linecap="butt"/><path d="M8.5 12A3.5 3.5 0 0 1 10.25 8.969" fill="none" stroke="#6bb4bd" stroke-width="1.4" stroke-linecap="butt"/><path d="M13.75 8.969A3.5 3.5 0 0 1 10.25 15.031" fill="none" stroke="#6bb4bd" stroke-width="1.4" stroke-linecap="butt"/><path d="M12 10.7a1.3 1.3 0 1 0 0 2.6a1.3 1.3 0 1 0 0 -2.6" fill="#6bb4bd"/><circle cx="12" cy="2.7" r="1.23" fill="#6bb4bd"/><circle cx="17.543" cy="15.2" r="1.23" fill="#6bb4bd"/><circle cx="8.969" cy="13.75" r="1.23" fill="#6bb4bd"/></svg>
